<?xml version="1.0" encoding="iso-8859-1"?>
<!-- Uploaded to: SVG Repo, www.svgrepo.com, Generator: SVG Repo Mixer Tools -->
<svg height="800px" width="800px" version="1.1" id="Layer_1" xmlns="http://www.w3.org/2000/svg" xmlns:xlink="http://www.w3.org/1999/xlink" 
	 viewBox="0 0 392.533 392.533" xml:space="preserve">
<path style="fill:#FFC10D;" d="M44.25,325.883c-12.347,0-22.432,10.02-22.432,22.432c0,12.412,10.02,22.432,22.432,22.432
	s22.432-10.02,22.432-22.432C66.683,335.968,56.598,325.883,44.25,325.883z"/>
<path style="fill:#56ACE0;" d="M196.299,325.883c-12.347,0-22.432,10.02-22.432,22.432c0,12.412,10.02,22.432,22.432,22.432
	c12.412,0,22.432-10.02,22.432-22.432C218.731,335.968,208.646,325.883,196.299,325.883z"/>
<g>
	<path style="fill:#FFC10D;" d="M348.347,325.883c-12.347,0-22.432,10.02-22.432,22.432c0,12.412,10.02,22.432,22.432,22.432
		s22.432-10.02,22.432-22.432C370.78,335.968,360.76,325.883,348.347,325.883z"/>
	<path style="fill:#FFC10D;" d="M196.299,106.537c23.337,0,42.408-19.006,42.408-42.408c0-23.337-19.006-42.343-42.408-42.343
		c-23.337,0-42.343,19.006-42.343,42.343C153.955,87.531,172.962,106.537,196.299,106.537z"/>
</g>
<path style="fill:#194F82;" d="M359.273,305.519v-96.259c0-6.012-4.848-10.925-10.925-10.925H207.224v-70.982
	c30.19-5.172,53.333-31.547,53.333-63.224C260.557,28.832,231.725,0,196.364,0S132.17,28.832,132.17,64.194
	c0,31.677,23.079,58.053,53.333,63.224V198.4H44.25c-6.012,0-10.925,4.848-10.925,10.925v96.194
	c-19.071,4.848-33.293,22.174-33.293,42.796c0,24.372,19.846,44.218,44.218,44.218c24.436,0,44.218-19.846,44.218-44.218
	c0-20.622-14.222-37.947-33.293-42.796v-85.333h130.133v85.333c-19.071,4.848-33.293,22.174-33.293,42.796
	c0,24.436,19.846,44.218,44.218,44.218c24.436,0,44.218-19.846,44.218-44.218c0-20.622-14.222-37.947-33.293-42.796v-85.333h130.198
	v85.333c-19.071,4.848-33.293,22.174-33.293,42.796c0,24.436,19.846,44.218,44.218,44.218c24.436,0,44.218-19.846,44.218-44.218
	C392.566,327.693,378.343,310.368,359.273,305.519z M44.25,370.747c-12.347,0-22.432-10.02-22.432-22.432
	c0-12.412,10.02-22.432,22.432-22.432s22.432,10.02,22.432,22.432C66.683,360.727,56.598,370.747,44.25,370.747z M196.299,370.747
	c-12.347,0-22.432-10.02-22.432-22.432c0-12.412,10.02-22.432,22.432-22.432c12.412,0,22.432,10.02,22.432,22.432
	C218.731,360.727,208.646,370.747,196.299,370.747z M196.299,21.786c23.337,0,42.408,19.006,42.408,42.343
	s-19.006,42.408-42.408,42.408c-23.337,0-42.343-19.006-42.343-42.408C153.955,40.792,172.962,21.786,196.299,21.786z
	 M348.347,370.747c-12.347,0-22.432-10.02-22.432-22.432c0-12.412,10.02-22.432,22.432-22.432s22.432,10.02,22.432,22.432
	C370.78,360.727,360.76,370.747,348.347,370.747z"/>
</svg>