<?xml version="1.0" encoding="iso-8859-1"?>
<!-- Uploaded to: SVG Repo, www.svgrepo.com, Generator: SVG Repo Mixer Tools -->
<svg version="1.1" id="Layer_1" xmlns="http://www.w3.org/2000/svg" xmlns:xlink="http://www.w3.org/1999/xlink" 
	 viewBox="0 0 392.663 392.663" xml:space="preserve">
<rect x="176.097" y="330.279" style="fill:#FFC10D;" width="40.469" height="40.469"/>
<g>
	<path style="fill:#FFFFFF;" d="M359.887,142.093H32.776c-6.012,0-10.925,4.848-10.925,10.925v76.735
		c0,6.012,4.848,10.925,10.925,10.925h327.111c6.012,0,10.925-4.848,10.925-10.925v-76.735
		C370.812,147.071,365.899,142.093,359.887,142.093z"/>
	<path style="fill:#FFFFFF;" d="M32.776,120.307h327.111c6.012,0,10.925-4.848,10.925-10.925V32.711
		c0-6.012-4.848-10.925-10.925-10.925H32.776c-6.012,0-10.925,4.848-10.925,10.925v76.735
		C21.851,115.459,26.764,120.307,32.776,120.307z"/>
</g>
<path style="fill:#194F82;" d="M392.598,32.711C392.598,14.675,377.923,0,359.887,0H32.776C14.739,0,0.065,14.675,0.065,32.711
	v76.735c0,8.339,3.168,15.968,8.404,21.786c-5.236,5.818-8.404,13.446-8.404,21.851v76.735c0,18.036,14.675,32.711,32.711,32.711
	h152.695v45.964h-20.234c-6.012,0-10.925,4.848-10.925,10.925v20.234H56.954c-6.012,0-10.925,4.848-10.925,10.925
	c0,6.012,4.848,10.925,10.925,10.925h97.358v20.234c0,6.012,4.848,10.925,10.925,10.925h62.255c6.012,0,10.925-4.848,10.925-10.925
	v-20.234h97.358c6.012,0,10.925-4.848,10.925-10.925c0-6.012-4.848-10.925-10.925-10.925h-97.422v-20.234
	c0-6.012-4.848-10.925-10.925-10.925h-20.234v-45.964h152.695c18.036,0,32.711-14.675,32.711-32.711v-76.735
	c0-8.339-3.168-15.968-8.404-21.786c5.172-5.818,8.404-13.446,8.404-21.786V32.711z M370.812,229.754
	c0,6.012-4.848,10.925-10.925,10.925H32.776c-6.012,0-10.925-4.848-10.925-10.925v-76.735c0-6.012,4.848-10.925,10.925-10.925
	h327.111c6.012,0,10.925,4.848,10.925,10.925V229.754L370.812,229.754z M21.851,32.711c0-6.012,4.848-10.925,10.925-10.925h327.111
	c6.012,0,10.925,4.848,10.925,10.925v76.735c0,6.012-4.848,10.925-10.925,10.925H32.776c-6.012,0-10.925-4.848-10.925-10.925
	C21.851,109.382,21.851,32.711,21.851,32.711z M216.566,370.747h-40.469v-40.469h40.469V370.747z"/>
<path style="fill:#56ACE0;" d="M43.636,217.147v-51.459c0-0.905,0.776-1.681,1.681-1.681h301.899c0.905,0,1.681,0.776,1.681,1.681
	v51.459c0,0.905-0.776,1.681-1.681,1.681H45.447C44.412,218.828,43.636,218.053,43.636,217.147z"/>
<path style="fill:#FFC10D;" d="M43.636,96.84V45.382c0-0.905,0.776-1.681,1.681-1.681h301.899c0.905,0,1.681,0.776,1.681,1.681
	V96.84c0,0.905-0.776,1.681-1.681,1.681H45.447C44.412,98.521,43.636,97.745,43.636,96.84z"/>
<g>
	<path style="fill:#194F82;" d="M270.61,60.186h-8.792c-6.012,0-10.925,4.848-10.925,10.925c0,6.077,4.848,10.925,10.925,10.925
		h8.792c6.012,0,10.925-4.848,10.925-10.925C281.535,65.034,276.622,60.186,270.61,60.186z"/>
	<path style="fill:#194F82;" d="M325.366,60.186h-8.792c-6.012,0-10.925,4.848-10.925,10.925c0,6.077,4.848,10.925,10.925,10.925
		h8.792c6.012,0,10.925-4.848,10.925-10.925C336.291,65.034,331.378,60.186,325.366,60.186z"/>
	<path style="fill:#194F82;" d="M63.483,50.747c-6.012,0-10.925,4.848-10.925,10.925V80.42c0,6.012,4.848,10.925,10.925,10.925
		s10.925-4.848,10.925-10.925V61.673C74.408,55.661,69.495,50.747,63.483,50.747z"/>
	<path style="fill:#194F82;" d="M110.61,50.747c-6.012,0-10.925,4.848-10.925,10.925V80.42c0,6.012,4.848,10.925,10.925,10.925
		c6.077,0,10.925-4.848,10.925-10.925V61.673C121.535,55.661,116.687,50.747,110.61,50.747z"/>
	<path style="fill:#194F82;" d="M63.483,171.055c-6.012,0-10.925,4.848-10.925,10.925v18.747c0,6.012,4.848,10.925,10.925,10.925
		s10.925-4.848,10.925-10.925V181.98C74.408,175.968,69.495,171.055,63.483,171.055z"/>
	<path style="fill:#194F82;" d="M110.61,171.055c-6.012,0-10.925,4.848-10.925,10.925v18.747c0,6.012,4.848,10.925,10.925,10.925
		c6.077,0,10.925-4.848,10.925-10.925V181.98C121.535,175.968,116.687,171.055,110.61,171.055z"/>
	<path style="fill:#194F82;" d="M270.61,180.493h-8.792c-6.012,0-10.925,4.848-10.925,10.925s4.848,10.925,10.925,10.925h8.792
		c6.012,0,10.925-4.848,10.925-10.925S276.622,180.493,270.61,180.493z"/>
	<path style="fill:#194F82;" d="M325.366,180.493h-8.792c-6.012,0-10.925,4.848-10.925,10.925s4.848,10.925,10.925,10.925h8.792
		c6.012,0,10.925-4.848,10.925-10.925S331.378,180.493,325.366,180.493z"/>
</g>
</svg>